<svg width="198" height="142" viewBox="0 0 198 142" fill="none" xmlns="http://www.w3.org/2000/svg">
<path d="M61.8083 1.57153L1.80829 71.0001L61.8083 140.429M135 140L197 71L135 2M123.75 75.5H113.25L105.375 93.125L89.625 57.875L81.75 75.5H71.25M131.558 49.313C129.557 47.3116 127.182 45.7239 124.568 44.6407C121.953 43.5575 119.151 43 116.322 43C113.492 43 110.69 43.5575 108.076 44.6407C105.462 45.7239 103.086 47.3116 101.086 49.313L96.9342 53.4646L92.7826 49.313C88.7418 45.2722 83.2613 43.0021 77.5467 43.0021C71.8322 43.0021 66.3517 45.2722 62.3109 49.313C58.2701 53.3538 56 58.8343 56 64.5488C56 70.2634 58.2701 75.7439 62.3109 79.7846L96.9342 114.408L131.558 79.7846C133.559 77.7842 135.147 75.409 136.23 72.7948C137.313 70.1806 137.871 67.3786 137.871 64.5488C137.871 61.7191 137.313 58.9171 136.23 56.3028C135.147 53.6886 133.559 51.3134 131.558 49.313Z" stroke="white" stroke-width="2" stroke-linecap="round" stroke-linejoin="round"/>
</svg>