<svg width="159" height="155" viewBox="0 0 159 155" fill="none" xmlns="http://www.w3.org/2000/svg">
<path d="M55.6833 155H63.6222V139.5H55.7707C53.3255 139.454 31.8667 138.159 31.8667 108.5C31.8667 93.0543 26.5873 83.3435 19.9425 77.5C26.5873 71.6565 31.8667 61.9458 31.8667 46.5C31.8667 16.8408 53.3255 15.5465 55.6833 15.5H63.6222V0H55.6675C41.9411 0.031 15.9889 9.796 15.9889 46.5C15.9889 68.2 2.66747 69.6725 0 69.75L0.111145 85.25C0.762134 85.25 15.9889 85.5135 15.9889 108.5C15.9889 145.204 41.9411 154.969 55.6833 155ZM158.889 69.75C158.238 69.75 143.011 69.4865 143.011 46.5C143.011 9.796 117.059 0.031 103.317 0H95.3778V15.5H103.229C105.675 15.5465 127.133 16.8408 127.133 46.5C127.133 61.9458 132.413 71.6565 139.058 77.5C132.413 83.3435 127.133 93.0543 127.133 108.5C127.133 138.159 105.675 139.454 103.317 139.5H95.3778V155H103.333C117.059 154.969 143.011 145.204 143.011 108.5C143.011 86.8 156.333 85.3275 159 85.25L158.889 69.75Z" fill="white"/>
<g clip-path="url(#clip0)">
<path d="M114.646 46.0392L105.961 37.3536C104.454 35.8466 102.41 35 100.279 35H71.4643C67.0262 35 63.4286 38.5977 63.4286 43.0357V51.0714H50.0357C45.5977 51.0714 42 54.6691 42 59.1071V112.679C42 117.117 45.5977 120.714 50.0357 120.714H87.5357C91.9738 120.714 95.5714 117.117 95.5714 112.679V104.643H108.964C113.402 104.643 117 101.045 117 96.6071V51.7213C117 49.5901 116.153 47.5462 114.646 46.0392ZM86.5313 112.679H51.0402C50.7738 112.679 50.5183 112.573 50.3299 112.384C50.1415 112.196 50.0357 111.941 50.0357 111.674V60.1116C50.0357 59.8452 50.1415 59.5897 50.3299 59.4013C50.5183 59.213 50.7738 59.1071 51.0402 59.1071H63.4286V96.6071C63.4286 101.045 67.0262 104.643 71.4643 104.643H87.5357V111.674C87.5357 111.941 87.4299 112.196 87.2415 112.384C87.0531 112.573 86.7977 112.679 86.5313 112.679ZM107.96 96.6071H72.4688C72.2023 96.6071 71.9469 96.5013 71.7585 96.3129C71.5701 96.1246 71.4643 95.8691 71.4643 95.6027V44.0402C71.4643 43.7738 71.5701 43.5183 71.7585 43.3299C71.9469 43.1415 72.2023 43.0357 72.4688 43.0357H90.2143V57.7679C90.2143 59.9869 92.0131 61.7857 94.2321 61.7857H108.964V95.6027C108.964 95.8691 108.858 96.1246 108.67 96.3129C108.482 96.5013 108.226 96.6071 107.96 96.6071V96.6071ZM108.964 53.75H98.25V43.0357H99.8625C100.129 43.0357 100.384 43.1415 100.573 43.3299L108.67 51.4272C108.763 51.5205 108.837 51.6312 108.888 51.7531C108.938 51.875 108.964 52.0056 108.964 52.1375V53.75Z" fill="white"/>
<path d="M77 67C82.3333 67 87.6667 67 93 67" stroke="white" stroke-width="2" stroke-linecap="round" stroke-linejoin="round"/>
<path d="M82 87C85.6667 87 89.3333 87 93 87" stroke="white" stroke-width="2" stroke-linecap="round" stroke-linejoin="round"/>
<path d="M77 92C83 92 89 92 95 92" stroke="white" stroke-width="2" stroke-linecap="round" stroke-linejoin="round"/>
</g>
<path d="M82 72C86 72 90 72 94 72" stroke="white" stroke-width="2" stroke-linecap="round" stroke-linejoin="round"/>
<path d="M80 77C84 77 88 77 92 77" stroke="white" stroke-width="2" stroke-linecap="round" stroke-linejoin="round"/>
<path d="M77 82C83 82 89 82 95 82" stroke="white" stroke-width="2" stroke-linecap="round" stroke-linejoin="round"/>
<defs>
<clipPath id="clip0">
<rect x="42" y="35" width="75" height="85.7143" fill="white"/>
</clipPath>
</defs>
</svg>
